<svg enable-background="new -54 -2.5 236 133" height="133" viewBox="-54 -2.5 236 133" width="236" xmlns="http://www.w3.org/2000/svg" xmlns:xlink="http://www.w3.org/1999/xlink"><linearGradient id="a"><stop offset="0" stop-color="#289bf7"/><stop offset="1" stop-color="#71b9f1"/></linearGradient><linearGradient id="b" gradientTransform="matrix(.118 0 0 -.118 -3571.7988 -5425.3076)" gradientUnits="userSpaceOnUse" x1="36623.0312" x2="36623.125" xlink:href="#a" y1="-25638.6094" y2="-25561.375"/><linearGradient id="c" gradientTransform="matrix(.118 0 0 -.118 -3571.7988 -5425.3076)" gradientUnits="userSpaceOnUse" x1="36671.9023" x2="36662.8203" y1="-61059.5508" y2="-60127.4414"><stop offset="0" stop-color="#93cfff"/><stop offset="1" stop-color="#cde8fe"/></linearGradient><linearGradient id="d" gradientTransform="matrix(.118 0 0 -.118 -3571.7988 -5425.3076)" gradientUnits="userSpaceOnUse" x1="36633.4297" x2="36628.5508" xlink:href="#a" y1="-59550.457" y2="-58722.75"/><g transform="matrix(.05899 0 0 .05899 19.999 24.15)"><path d="m-1178.19-451.598c-28.913 0-52.172 23.442-52.172 52.603v1018.719l3952.537 6.316v-764.927c0-29.136-23.276-52.661-52.213-52.661h-2194.792c-53.182 4.818-60.027-2.351-86.308-37.712-37.273-50.26-93.551-135.31-130.244-184.353-29.434-42.943-34.219-37.985-83.055-37.985z" fill="url(#b)"/><path d="m-1193.677-61.552h3879.233c33.556 0 60.689 27.224 60.689 60.814v1742.715c0 33.639-27.133 60.872-60.689 60.872h-3879.233c-33.556 0-60.756-27.233-60.756-60.872v-1742.715c0-33.59 27.199-60.814 60.756-60.814z" fill="url(#c)"/><path d="m113.905 1647.101h1264.093c53.803 0 97.871-44.4 97.871-98.782v-1353.637c0-54.167-44.069-98.741-97.871-98.741h-1264.093c-53.919 0-97.946 44.574-97.946 98.741v1353.638c0 54.382 44.027 98.781 97.946 98.781m1123.213-1430.31c0-16.422 13.244-29.633 29.368-29.633h91.779c16.124 0 29.269 13.211 29.269 29.633v95.446c0 16.389-13.145 29.616-29.269 29.616h-91.779c-16.124 0-29.368-13.227-29.368-29.616zm0 242.766c0-16.422 13.244-29.683 29.368-29.683h91.779c16.124 0 29.269 13.26 29.269 29.683v95.446c0 16.339-13.145 29.724-29.269 29.724h-91.779c-16.124 0-29.368-13.385-29.368-29.724zm0 242.916c0-16.356 13.244-29.716 29.368-29.716h91.779c16.124 0 29.269 13.36 29.269 29.716v95.554c0 16.19-13.145 29.55-29.269 29.55h-91.779c-16.124 0-29.368-13.36-29.368-29.55zm0 242.775c0-16.422 13.244-29.732 29.368-29.732h91.779c16.124 0 29.269 13.31 29.269 29.732v95.537c0 16.29-13.145 29.567-29.269 29.567h-91.779c-16.124 0-29.368-13.277-29.368-29.567zm0 242.758c0-16.406 13.244-29.567 29.368-29.567h91.779c16.124 0 29.269 13.161 29.269 29.567v95.554c0 16.29-13.145 29.55-29.269 29.55h-91.779c-16.124 0-29.368-13.26-29.368-29.55zm0 242.758c0-16.224 13.244-29.55 29.368-29.55h91.779c16.124 0 29.269 13.327 29.269 29.55v95.653c0 16.157-13.145 29.616-29.269 29.616h-91.779c-16.124 0-29.368-13.36-29.368-29.616zm-881.696-1142.358c0-16.397 13.252-29.674 29.434-29.674h722.208c16.157 0 29.385 13.277 29.385 29.674v472.521c0 16.24-13.227 29.699-29.385 29.699h-722.208c-16.182 0-29.434-13.459-29.434-29.699zm0 728.656c0-16.24 13.252-29.5 29.434-29.5h722.208c16.157 0 29.385 13.26 29.385 29.5v436.895c0 16.306-13.227 29.616-29.385 29.616h-722.208c-16.182 0-29.434-13.31-29.434-29.616zm-251.135-800.329c0-16.364 13.186-29.625 29.385-29.625h91.812c16.083 0 29.26 13.26 29.26 29.625v95.446c0 16.397-13.178 29.625-29.26 29.625h-91.812c-16.199 0-29.385-13.177-29.385-29.625zm0 242.775c0-16.373 13.186-29.633 29.385-29.633h91.812c16.083 0 29.26 13.26 29.26 29.633v95.438c0 16.397-13.178 29.732-29.26 29.732h-91.812c-16.199 0-29.385-13.335-29.385-29.732zm0 242.915c0-16.356 13.186-29.666 29.385-29.666h91.812c16.083 0 29.26 13.31 29.26 29.666v95.504c0 16.224-13.178 29.583-29.26 29.583h-91.812c-16.199 0-29.385-13.36-29.385-29.583zm0 242.825c0-16.422 13.186-29.732 29.385-29.732h91.812c16.083 0 29.26 13.31 29.26 29.732v95.421c0 16.356-13.178 29.616-29.26 29.616h-91.812c-16.199 0-29.385-13.26-29.385-29.616zm0 242.758c0-16.406 13.186-29.633 29.385-29.633h91.812c16.083 0 29.26 13.178 29.26 29.633v95.554c0 16.224-13.178 29.484-29.26 29.484h-91.812c-16.199 0-29.385-13.26-29.385-29.484zm0 242.758c0-16.29 13.186-29.616 29.385-29.616h91.812c16.083 0 29.26 13.327 29.26 29.616v95.653c0 16.157-13.178 29.517-29.26 29.517h-91.812c-16.199 0-29.385-13.36-29.385-29.517z" fill="url(#d)"/></g></svg>